<svg width="48" height="48" viewBox="0 0 48 48" fill="none" xmlns="http://www.w3.org/2000/svg">
<circle cx="24" cy="24" r="24" fill="#3D6CFF"/>
<path fill-rule="evenodd" clip-rule="evenodd" d="M18.7986 10.5907C13.5257 12.7564 10 17.9781 10 23.8671C10 29.7336 13.4987 34.9392 18.7418 37.12C19.3665 37.3799 20.0798 37.0748 20.335 36.4385C20.5901 35.8023 20.2905 35.0759 19.6658 34.816C15.3342 33.0143 12.4438 28.7138 12.4438 23.8671C12.4438 19.0018 15.3565 14.688 19.7127 12.8988C20.3385 12.6417 20.6412 11.9166 20.3888 11.2793C20.1364 10.6419 19.4244 10.3336 18.7986 10.5907ZM29.2014 37.4093C34.4743 35.2436 38 30.0219 38 24.1329C38 18.2664 34.5013 13.0608 29.2582 10.88C28.6335 10.6201 27.9202 10.9252 27.665 11.5615C27.4099 12.1977 27.7095 12.9241 28.3342 13.184C32.6658 14.9857 35.5562 19.2862 35.5562 24.1329C35.5562 28.9982 32.6435 33.312 28.2873 35.1012C27.6615 35.3583 27.3587 36.0834 27.6112 36.7207C27.8636 37.3581 28.5756 37.6664 29.2014 37.4093ZM19.0467 28.6261C19.4346 29.2485 19.9387 29.7461 20.5592 30.119C20.7687 30.2431 21.0916 30.3657 21.4238 30.4728C22.1641 30.7116 22.7078 31.3747 22.7078 32.1525C22.7078 32.8398 23.2549 33.3969 23.9297 33.3969C24.6045 33.3969 25.1516 32.8398 25.1516 32.1525C25.1516 31.3675 25.7064 30.7097 26.4514 30.4625C26.5854 30.418 26.7076 30.3724 26.8045 30.3275C27.6236 29.9484 28.2456 29.4239 28.6707 28.754C29.0957 28.0842 29.3082 27.3291 29.3082 26.4886C29.3082 25.7872 29.1857 25.1948 28.9406 24.7114C28.6955 24.228 28.3542 23.8283 27.9168 23.5123C27.4793 23.1964 26.9488 22.9278 26.3252 22.7067C25.7016 22.4855 25.0051 22.2833 24.2357 22.1C23.6214 21.942 23.1808 21.822 22.914 21.7398C22.6472 21.6577 22.3835 21.5439 22.1229 21.3986C21.8623 21.2533 21.6575 21.0795 21.5086 20.8773C21.3596 20.6751 21.2852 20.4349 21.2852 20.1569C21.2852 19.7082 21.5039 19.3244 21.9414 19.0052C22.3788 18.6861 22.9543 18.5266 23.6679 18.5266C24.4373 18.5266 24.9958 18.6735 25.3432 18.9673C25.6907 19.2612 25.9886 19.6703 26.2368 20.1948C26.4291 20.5613 26.6075 20.8251 26.7719 20.9863C26.9364 21.1474 27.1768 21.228 27.4933 21.228C27.8408 21.228 28.1308 21.0937 28.3635 20.8251C28.5962 20.5566 28.7125 20.2548 28.7125 19.9199C28.7125 19.5534 28.6195 19.1774 28.4333 18.792C28.2472 18.4065 27.9524 18.0384 27.5491 17.6877C27.1458 17.337 26.6385 17.0558 26.0273 16.8441C25.5305 16.672 25.1516 16.2484 25.1516 15.7226V15.229C25.1516 14.5417 24.6045 13.9846 23.9297 13.9846C23.2549 13.9846 22.7078 14.5417 22.7078 15.229C22.7078 16.0227 22.1357 16.6791 21.3776 16.914C21.2801 16.9442 21.1914 16.9749 21.1177 17.0052C20.342 17.3244 19.7495 17.7809 19.3399 18.3749C18.9304 18.9689 18.7256 19.6482 18.7256 20.4128C18.7256 21.2154 18.9195 21.8868 19.3074 22.427C19.6952 22.9673 20.2195 23.3939 20.8803 23.7067C21.5411 24.0195 22.3617 24.2928 23.3421 24.5266C24.0743 24.6972 24.6591 24.8583 25.0966 25.01C25.5341 25.1616 25.8908 25.3812 26.167 25.6687C26.4431 25.9563 26.5811 26.3307 26.5811 26.792C26.5811 27.3733 26.3252 27.8583 25.8133 28.2469C25.3014 28.6356 24.6359 28.8299 23.8168 28.8299C23.2211 28.8299 22.7403 28.7335 22.3742 28.5408C22.0081 28.348 21.7242 28.1032 21.5225 27.8062C21.3209 27.5092 21.1332 27.1395 20.9594 26.6972C20.8167 26.3243 20.6445 26.0431 20.4429 25.8536C20.2412 25.664 19.9946 25.5692 19.7029 25.5692C19.343 25.5692 19.0467 25.6909 18.8141 25.9341C18.5814 26.1774 18.465 26.4697 18.465 26.8109C18.465 27.3986 18.6589 28.0036 19.0467 28.6261Z" fill="white"/>
</svg>
