<svg width="48" height="48" viewBox="0 0 48 48" fill="none" xmlns="http://www.w3.org/2000/svg">
<circle cx="24" cy="24" r="24" fill="#FF8A1D"/>
<path fill-rule="evenodd" clip-rule="evenodd" d="M22.8157 10.224L25.3368 10.8995L24.3755 14.4872L26.0563 14.9376L27.0176 11.3499L29.5388 12.0254L28.5752 15.6215C30.4817 16.2274 34.2105 18.1214 33.2582 21.6752C32.6573 23.918 30.8152 24.2552 29.8356 24.3639C30.9337 24.8968 33.1768 26.4612 32.2753 29.8255C31.4291 32.9838 28.9895 34.5618 23.8455 33.2732L22.8095 37.1395L20.2883 36.4639L21.3236 32.6002L19.6428 32.1499L18.6075 36.0136L16.0864 35.338L17.1216 31.4743L15.4409 31.024L12.4954 30.2347L13.1999 27.6057L15.1662 28.1326C15.1662 28.1326 16.1456 28.1203 16.4175 27.3791L19.1752 17.087L19.1754 17.0866C19.3968 16.2589 18.4906 15.7204 18.4906 15.7204L16.5297 15.195L17.2322 12.5732L20.1735 13.3613L21.8543 13.8117L22.8157 10.224ZM23.636 17.247L22.3789 21.9387C22.3789 21.9387 27.8414 23.4023 28.47 21.0565C29.0986 18.7107 23.636 17.247 23.636 17.247ZM20.4562 29.1141L21.7503 24.2845C21.7503 24.2845 28.5183 25.3585 27.5939 28.8082C26.8544 31.568 20.4562 29.1141 20.4562 29.1141Z" fill="white"/>
</svg>
