<svg width="48" height="48" viewBox="0 0 48 48" fill="none" xmlns="http://www.w3.org/2000/svg">
<circle cx="24" cy="24" r="24" fill="#4BC339"/>
<path fill-rule="evenodd" clip-rule="evenodd" d="M20.2881 11.5346L22.8072 10.8605L23.7708 14.4521C25.7251 14.0251 29.8954 13.8056 30.8491 17.3593C31.4512 19.6033 30.0259 20.8158 29.2327 21.3994C30.4494 21.3126 33.1732 21.5476 34.0765 24.9136C34.9246 28.0743 33.6021 30.6612 28.5024 32.1143L29.5386 35.9761L27.0196 36.6502L25.984 32.7908L24.3007 33.2412L25.3367 37.102L22.8176 37.7761L21.7817 33.9151L20.1087 34.3627L15.3667 16.6915L17.0472 16.2419L16.0862 12.6605L18.6052 11.9865L19.5662 15.5679L21.2495 15.1175L20.2881 11.5346ZM20.3082 18.328L21.5708 23.0256C21.5708 23.0256 27.0278 21.5679 26.3965 19.2191C25.7652 16.8703 20.3082 18.328 20.3082 18.328ZM23.4938 30.2009L22.194 25.3646C22.194 25.3646 28.5853 22.9168 29.5138 26.3712C30.2565 29.1348 23.4938 30.2009 23.4938 30.2009ZM15.3582 16.7001L12.4254 17.481L13.1337 20.1077L15.0889 19.5871C15.0889 19.5871 16.1411 19.6033 16.3648 20.4328L15.3582 16.7001ZM17.1626 35.152L20.1035 34.3689L19.0941 30.6259C19.3184 31.4577 18.4129 31.996 18.4129 31.996L16.4523 32.518L17.1626 35.152Z" fill="white"/>
</svg>
