<svg width="96" height="96" viewBox="0 0 96 96" fill="none" xmlns="http://www.w3.org/2000/svg">
<g clip-path="url(#clip0_13770_54216)">
<rect width="96" height="96" rx="24" fill="#1C2526"/>
<circle cx="36.5" cy="56" r="14" fill="#1C2526" stroke="white" stroke-width="2.5"/>
<path d="M38.1598 58.5996C38.1598 59.3832 37.5622 59.8654 36.6162 59.8654C35.471 59.8654 34.8402 59.2174 34.8402 58.0571H32.5C32.5 60.0614 33.778 61.3423 35.9855 61.5382V63H37.2801V61.5382C39.2718 61.3574 40.5 60.2573 40.5 58.5845C40.5 56.5048 38.7905 55.8116 36.9813 55.1335C35.6867 54.6663 35.2884 54.2896 35.2884 53.5511C35.2884 52.7524 35.8029 52.2702 36.6826 52.2702C37.5622 52.2702 38.1598 52.8579 38.1598 54.0183H40.5C40.5 52.1044 39.3548 50.8385 37.4461 50.5974V49H36.1515V50.5823C34.2095 50.7632 32.9481 51.8784 32.9481 53.5511C32.9481 55.6006 34.7241 56.3692 36.5332 56.9871C37.7116 57.394 38.1598 57.8009 38.1598 58.5996Z" fill="white" stroke="white" stroke-width="0.2"/>
<path d="M59.4999 54.0014C54.7726 54.0014 50.5925 51.6584 48.0576 48.0703" stroke="#1C2526" stroke-width="7"/>
<path d="M73.5 40C73.5 47.732 67.232 54 59.5 54C51.768 54 45.5 47.732 45.5 40C45.5 32.268 51.768 26 59.5 26C67.232 26 73.5 32.268 73.5 40Z" fill="#1C2526" stroke="white" stroke-width="2.5"/>
<path d="M65.5 40.5101C65.5 39.5276 63.2344 38.9519 60.69 38.8153V37.1315H64.2443V34.6016H54.7555V37.1315H58.31V38.8153C55.7658 38.9519 53.5 39.5279 53.5 40.5101C53.5 41.4921 55.7656 42.0679 58.31 42.2044V46.6016H60.6902V42.2047C63.2344 42.0681 65.5 41.4921 65.5 40.5101ZM60.69 41.7837V41.7786C60.3012 41.8038 59.8966 41.8122 59.4999 41.8122C59.1032 41.8122 58.6986 41.8038 58.3098 41.7786V41.7837C55.5484 41.6354 53.8965 40.99 53.8965 40.5101C53.8965 40.0304 55.5482 39.3845 58.3098 39.2362V40.5101C58.6906 40.5354 59.0873 40.5438 59.4999 40.5438C59.9204 40.5438 60.3171 40.5354 60.69 40.5101V39.2362C63.4513 39.3845 65.1033 40.0304 65.1033 40.5101C65.1033 40.99 63.4516 41.6354 60.69 41.7837Z" fill="white" stroke="white" stroke-width="0.25"/>
<path fill-rule="evenodd" clip-rule="evenodd" d="M49.8896 46.3558C46.8931 42.203 42.0122 39.5 36.5 39.5V35C43.5218 35 49.7374 38.4532 53.539 43.7233L49.8896 46.3558Z" fill="#1C2526"/>
</g>
<defs>
<clipPath id="clip0_13770_54216">
<rect width="48" height="48" fill="white" transform="scale(2)"/>
</clipPath>
</defs>
</svg>
